<svg xmlns="http://www.w3.org/2000/svg" viewBox="0 0 96 96" role="img" aria-label="Flyfish Word Editor mark">
  <defs>
    <linearGradient id="mark-bg" x1="12" y1="8" x2="84" y2="88" gradientUnits="userSpaceOnUse">
      <stop offset="0" stop-color="#38bdf8"/>
      <stop offset=".46" stop-color="#185abd"/>
      <stop offset="1" stop-color="#0b2f6f"/>
    </linearGradient>
    <linearGradient id="paper-fill" x1="40" y1="12" x2="72" y2="82" gradientUnits="userSpaceOnUse">
      <stop offset="0" stop-color="#ffffff"/>
      <stop offset="1" stop-color="#e9f4ff"/>
    </linearGradient>
    <filter id="soft-shadow" x="-20%" y="-20%" width="140%" height="150%" color-interpolation-filters="sRGB">
      <feDropShadow dx="0" dy="8" stdDeviation="6" flood-color="#061b44" flood-opacity=".24"/>
    </filter>
  </defs>
  <rect width="96" height="96" rx="24" fill="url(#mark-bg)"/>
  <path d="M46 13h25l12 12v52a7 7 0 0 1-7 7H46a7 7 0 0 1-7-7V20a7 7 0 0 1 7-7Z" fill="url(#paper-fill)" filter="url(#soft-shadow)"/>
  <path d="M71 14v10a3 3 0 0 0 3 3h9Z" fill="#cfe6ff"/>
  <path d="M48 41h24M48 51h24M48 61h17" stroke="#87aee8" stroke-width="3.2" stroke-linecap="round"/>
  <rect x="12" y="28" width="50" height="50" rx="13" fill="#185abd" filter="url(#soft-shadow)"/>
  <path d="M21 40h6.1l3.1 19 5-19h4.8l5 19 3.1-19H54l-6 27h-6.3L37.6 50 33.5 67h-6.3Z" fill="#fff"/>
  <path d="M18 22c8-8 20-10 31-5-9 2-16 7-21 14-4-3-7-5-10-9Z" fill="#7dd3fc" opacity=".9"/>
</svg>
