<svg xmlns="http://www.w3.org/2000/svg" viewBox="0 0 1280 640" role="img" aria-label="Flyfish Word Editor social preview">
  <defs>
    <linearGradient id="preview-bg" x1="0" y1="0" x2="1280" y2="640" gradientUnits="userSpaceOnUse">
      <stop offset="0" stop-color="#f8fbff"/>
      <stop offset=".58" stop-color="#e9f3ff"/>
      <stop offset="1" stop-color="#dbeafe"/>
    </linearGradient>
    <linearGradient id="preview-card" x1="94" y1="70" x2="430" y2="520" gradientUnits="userSpaceOnUse">
      <stop offset="0" stop-color="#38bdf8"/>
      <stop offset=".46" stop-color="#185abd"/>
      <stop offset="1" stop-color="#0b2f6f"/>
    </linearGradient>
    <filter id="preview-shadow" x="-20%" y="-20%" width="140%" height="150%" color-interpolation-filters="sRGB">
      <feDropShadow dx="0" dy="24" stdDeviation="24" flood-color="#0f2d62" flood-opacity=".18"/>
    </filter>
  </defs>
  <rect width="1280" height="640" fill="url(#preview-bg)"/>
  <rect x="84" y="94" width="330" height="330" rx="72" fill="url(#preview-card)" filter="url(#preview-shadow)"/>
  <path d="M244 140h89l39 39v179a22 22 0 0 1-22 22H244a22 22 0 0 1-22-22V162a22 22 0 0 1 22-22Z" fill="#f8fbff" filter="url(#preview-shadow)"/>
  <path d="M333 142v35a10 10 0 0 0 10 10h29Z" fill="#cfe6ff"/>
  <path d="M257 236h76M257 270h76M257 304h56" stroke="#8ab6ec" stroke-width="10" stroke-linecap="round"/>
  <rect x="122" y="194" width="170" height="170" rx="42" fill="#185abd" filter="url(#preview-shadow)"/>
  <path d="M155 236h19l9 62 15.5-62h16.3l15.5 62 9-62h19L239 331h-20.5l-12-53.4L194.2 331h-20.5Z" fill="#fff"/>
  <text x="482" y="226" fill="#111827" font-family="Inter, Segoe UI, Arial, sans-serif" font-size="72" font-weight="850">Flyfish Word Editor</text>
  <text x="486" y="296" fill="#334155" font-family="Inter, Segoe UI, Arial, sans-serif" font-size="34" font-weight="600">Sealed WASM DOCX editor for local public beta validation</text>
  <text x="486" y="354" fill="#475569" font-family="Inter, Segoe UI, Arial, sans-serif" font-size="25" font-weight="500">展开版公测仓库 · localhost-only · Issues 收集真实样例与兼容性问题</text>
  <rect x="486" y="408" width="190" height="46" rx="23" fill="#185abd"/>
  <text x="519" y="439" fill="#fff" font-family="Inter, Segoe UI, Arial, sans-serif" font-size="20" font-weight="800">WASM core</text>
  <rect x="694" y="408" width="190" height="46" rx="23" fill="#0f766e"/>
  <text x="724" y="439" fill="#fff" font-family="Inter, Segoe UI, Arial, sans-serif" font-size="20" font-weight="800">localhost only</text>
  <rect x="902" y="408" width="158" height="46" rx="23" fill="#7c3aed"/>
  <text x="938" y="439" fill="#fff" font-family="Inter, Segoe UI, Arial, sans-serif" font-size="20" font-weight="800">public beta</text>
  <text x="488" y="512" fill="#185abd" font-family="Inter, Segoe UI, Arial, sans-serif" font-size="24" font-weight="800">github.com/flyfish-dev/word-editor</text>
</svg>
