<svg xmlns="http://www.w3.org/2000/svg" viewBox="0 0 64 64" role="img" aria-label="Word editor">
  <defs>
    <linearGradient id="bg" x1="12" y1="4" x2="54" y2="60" gradientUnits="userSpaceOnUse">
      <stop offset="0" stop-color="#2b88d8"/>
      <stop offset=".52" stop-color="#185abd"/>
      <stop offset="1" stop-color="#0f3f8f"/>
    </linearGradient>
    <linearGradient id="sheet" x1="24" y1="8" x2="49" y2="54" gradientUnits="userSpaceOnUse">
      <stop offset="0" stop-color="#ffffff"/>
      <stop offset="1" stop-color="#eaf3ff"/>
    </linearGradient>
    <filter id="shadow" x="-20%" y="-20%" width="140%" height="150%" color-interpolation-filters="sRGB">
      <feDropShadow dx="0" dy="4" stdDeviation="3" flood-color="#052b63" flood-opacity=".28"/>
    </filter>
  </defs>
  <rect width="64" height="64" rx="15" fill="url(#bg)"/>
  <path d="M26 8h19l9 9v36a5 5 0 0 1-5 5H26a5 5 0 0 1-5-5V13a5 5 0 0 1 5-5Z" fill="url(#sheet)" filter="url(#shadow)"/>
  <path d="M45 8v8a2 2 0 0 0 2 2h7Z" fill="#cfe4ff"/>
  <path d="M29 27h17M29 34h17M29 41h12" stroke="#87aee8" stroke-width="2.2" stroke-linecap="round"/>
  <rect x="9" y="18" width="32" height="32" rx="7" fill="#185abd" filter="url(#shadow)"/>
  <path d="M15 26h4l2.2 12.2L24.4 26h3.2l3.2 12.2L33 26h4l-4 16h-4.3L26 31.9 23.3 42H19Z" fill="#ffffff"/>
</svg>
